<?xml version="1.0" encoding="utf-8"?>
<!-- Generator: Adobe Illustrator 15.0.0, SVG Export Plug-In . SVG Version: 6.00 Build 0)  -->
<!DOCTYPE svg PUBLIC "-//W3C//DTD SVG 1.1//EN" "http://www.w3.org/Graphics/SVG/1.1/DTD/svg11.dtd">
<svg version="1.1" id="socialicious" xmlns="http://www.w3.org/2000/svg" xmlns:xlink="http://www.w3.org/1999/xlink" x="0px"
	 y="0px" width="100px" height="100px" viewBox="0 0 100 100" enable-background="new 0 0 100 100" xml:space="preserve">
<g>
	<path fill="#231F20" d="M29.4,3.5L50,20.7L20.3,38.9L0,22.7L29.4,3.5z M20.3,38.9L50,57.3L29.4,74.4L0,55.2L20.3,38.9z M79.6,72.3
		v6.5L50.1,96.4v0.1L50,96.4v0.1v-0.1L20.6,78.8v-6.5l8.8,5.8L50,61v-0.1l0.1,0.1l0.1-0.1V61l20.6,17.1L79.6,72.3z M70.6,3.5
		L100,22.7L79.7,38.9L50,20.7L70.6,3.5z M79.7,38.9L100,55.2L70.6,74.4L50,57.3L79.7,38.9z"/>
</g>
</svg>
