<?xml version="1.0" encoding="utf-8"?>
<!-- Generator: Adobe Illustrator 15.0.0, SVG Export Plug-In . SVG Version: 6.00 Build 0)  -->
<!DOCTYPE svg PUBLIC "-//W3C//DTD SVG 1.1//EN" "http://www.w3.org/Graphics/SVG/1.1/DTD/svg11.dtd">
<svg version="1.1" id="socialicious" xmlns="http://www.w3.org/2000/svg" xmlns:xlink="http://www.w3.org/1999/xlink" x="0px"
	 y="0px" width="100px" height="100px" viewBox="0 0 100 100" enable-background="new 0 0 100 100" xml:space="preserve">
<g id="linkedin">
	<path fill="#231F20" d="M22.7,97.8V33.3H1.3v64.5H22.7L22.7,97.8z M12,24.5c7.5,0,12.1-5,12.1-11.1C24,7,19.5,2.2,12.1,2.2
		C4.8,2.2,0,7,0,13.4c0,6.2,4.6,11.1,11.8,11.1H12L12,24.5z"/>
	<path fill="#231F20" d="M34.6,97.8H56v-36c0-1.899,0.1-3.899,0.7-5.2c1.5-3.899,5.1-7.8,11-7.8C75.5,48.8,78.6,54.7,78.6,63.4v34.5
		H100v-37c0-19.8-10.6-29-24.7-29c-11.6,0-16.6,6.5-19.5,10.9H56v-9.4H34.6C34.8,39.3,34.6,97.8,34.6,97.8L34.6,97.8z"/>
</g>
</svg>
