<?xml version="1.0" encoding="utf-8"?>
<!-- Generator: Adobe Illustrator 15.0.0, SVG Export Plug-In . SVG Version: 6.00 Build 0)  -->
<!DOCTYPE svg PUBLIC "-//W3C//DTD SVG 1.1//EN" "http://www.w3.org/Graphics/SVG/1.1/DTD/svg11.dtd">
<svg version="1.1" id="socialicious" xmlns="http://www.w3.org/2000/svg" xmlns:xlink="http://www.w3.org/1999/xlink" x="0px"
	 y="0px" width="100px" height="100px" viewBox="0 0 100 100" enable-background="new 0 0 100 100" xml:space="preserve">
<path id="soundcloud_1_" fill="#231F20" d="M1.1,54.3c-0.2,0-0.4,0.2-0.4,0.4L0,60.2l0.7,5.5c0,0.2,0.2,0.399,0.4,0.399
	c0.2,0,0.4-0.199,0.4-0.399l0,0l0,0l0,0l0.9-5.5L1.5,54.6C1.5,54.4,1.3,54.3,1.1,54.3z M5.2,51.2c0-0.2-0.2-0.4-0.4-0.4
	c-0.2,0-0.4,0.2-0.4,0.4l-1,9l1,8.8c0,0.2,0.2,0.4,0.4,0.4c0.2,0,0.4-0.2,0.4-0.4l1.1-8.8L5.2,51.2z M20.7,42.9
	c-0.4,0-0.7,0.3-0.8,0.7l-0.8,16.5L20,70.9c0,0.399,0.4,0.699,0.8,0.699c0.4,0,0.7-0.3,0.8-0.699l0,0l0.9-10.7l-0.9-16.5
	C21.5,43.3,21.1,42.9,20.7,42.9z M12.7,48.7c-0.3,0-0.6,0.2-0.6,0.6l-0.9,10.9l0.9,10.6c0,0.3,0.3,0.601,0.6,0.601
	c0.3,0,0.6-0.2,0.6-0.601l1-10.6l-1-11C13.3,48.9,13,48.7,12.7,48.7z M28.9,71.6c0.5,0,0.9-0.399,0.9-0.899l0.8-10.5l-0.8-22
	c0-0.5-0.4-0.9-0.9-0.9S28,37.7,28,38.2l-0.7,22L28,70.7C28,71.2,28.4,71.6,28.9,71.6z M45.6,71.7c0.7,0,1.3-0.601,1.3-1.3l0,0l0,0
	l0.5-10.2l-0.5-25.4c0-0.7-0.6-1.3-1.3-1.3c-0.7,0-1.3,0.6-1.3,1.3l-0.5,25.4l0.5,10.2C44.3,71.1,44.9,71.7,45.6,71.7z M37.2,71.6
	c0.6,0,1.1-0.5,1.1-1.1l0,0L39,60.2L38.3,38c0-0.6-0.5-1.1-1.1-1.1c-0.6,0-1.1,0.5-1.1,1.1l-0.6,22.2l0.6,10.3
	C36.1,71.2,36.6,71.6,37.2,71.6z M16.7,71.5c0.4,0,0.6-0.3,0.7-0.7l0.9-10.7L17.4,50c0-0.4-0.3-0.7-0.7-0.7c-0.4,0-0.6,0.3-0.7,0.7
	l-0.8,10.2L16,70.9C16.1,71.3,16.3,71.5,16.7,71.5z M8.8,71c0.3,0,0.5-0.2,0.5-0.5l1.1-10.3L9.3,49.6c0-0.3-0.2-0.5-0.5-0.5
	c-0.3,0-0.5,0.2-0.5,0.5l-1,10.6l0.9,10.3C8.3,70.8,8.5,71,8.8,71z M41.3,37.7c-0.7,0-1.2,0.5-1.2,1.2l-0.5,21.3l0.5,10.3
	c0,0.7,0.5,1.2,1.2,1.2c0.6,0,1.2-0.5,1.2-1.2l0,0l0.6-10.3l-0.6-21.4C42.5,38.2,42,37.7,41.3,37.7z M24.8,71.7
	c0.4,0,0.8-0.4,0.8-0.8L26.4,60.3L25.6,40c0-0.5-0.4-0.8-0.8-0.8c-0.5,0-0.8,0.4-0.8,0.8l-0.7,20.3L24,70.8
	C24,71.3,24.3,71.7,24.8,71.7z M34,70.7L34,70.7l0.7-10.4L34,37.5c0-0.6-0.5-1-1-1s-1,0.4-1,1l-0.6,22.7L32,70.7c0,0.6,0.5,1,1,1
	C33.6,71.7,34,71.2,34,70.7L34,70.7z M87.7,47.1c-1.7,0-3.3,0.3-4.8,1C82,37,72.7,28.3,61.3,28.3c-2.8,0-5.5,0.5-7.899,1.5
	c-0.9,0.4-1.2,0.7-1.2,1.4v39c0,0.8,0.6,1.399,1.3,1.5c0,0,33.9,0,34.1,0C94.4,71.7,99.9,66.2,99.9,59.4
	C100,52.6,94.5,47.1,87.7,47.1z M49.8,31.2c-0.7,0-1.3,0.6-1.4,1.4l-0.6,27.7L48.4,70.4c0,0.699,0.6,1.3,1.4,1.3
	c0.7,0,1.3-0.601,1.4-1.4l0,0l0.6-10.1l-0.6-27.7C51.1,31.8,50.5,31.2,49.8,31.2z"/>
</svg>
