<?xml version="1.0" encoding="utf-8"?>
<!-- Generator: Adobe Illustrator 15.0.0, SVG Export Plug-In . SVG Version: 6.00 Build 0)  -->
<!DOCTYPE svg PUBLIC "-//W3C//DTD SVG 1.1//EN" "http://www.w3.org/Graphics/SVG/1.1/DTD/svg11.dtd">
<svg version="1.1" id="socialicious" xmlns="http://www.w3.org/2000/svg" xmlns:xlink="http://www.w3.org/1999/xlink" x="0px"
	 y="0px" width="100px" height="100px" viewBox="0 0 100 100" enable-background="new 0 0 100 100" xml:space="preserve">
<path id="vimeo" fill="#231F20" d="M100,26.8c-0.4,9.7-7.2,23.1-20.4,40C66,84.4,54.5,93.3,45,93.3c-5.8,0-10.8-5.399-14.8-16.2
	C27.5,67.2,24.8,57.4,22.1,47.5c-3-10.8-6.2-16.2-9.6-16.2c-0.7,0-3.4,1.6-7.8,4.7L0,30c4.9-4.3,9.8-8.7,14.6-13
	c6.6-5.7,11.5-8.7,14.8-9c7.8-0.7,12.6,4.6,14.4,16c1.9,12.3,3.3,19.9,4,22.9c2.2,10.2,4.7,15.3,7.4,15.3c2.1,0,5.2-3.3,9.399-9.9
	c4.2-6.6,6.4-11.7,6.7-15.1c0.601-5.7-1.6-8.6-6.7-8.6c-2.399,0-4.899,0.6-7.399,1.6C62.2,14.1,71.6,6.3,85.4,6.8
	C95.7,7.1,100.5,13.7,100,26.8z"/>
</svg>
