<?xml version="1.0" encoding="utf-8"?>
<!-- Generator: Adobe Illustrator 15.0.0, SVG Export Plug-In . SVG Version: 6.00 Build 0)  -->
<!DOCTYPE svg PUBLIC "-//W3C//DTD SVG 1.1//EN" "http://www.w3.org/Graphics/SVG/1.1/DTD/svg11.dtd">
<svg version="1.1" id="socialicious" xmlns="http://www.w3.org/2000/svg" xmlns:xlink="http://www.w3.org/1999/xlink" x="0px"
	 y="0px" width="100px" height="100px" viewBox="0 0 100 100" enable-background="new 0 0 100 100" xml:space="preserve">
<g>
	<path fill="#231F20" d="M90.1,42.3c-1-0.9-2.199-1.6-3.6-2.1l0,0l0,0c-1.4-0.5-2.9-0.7-4.6-0.7c-1.7,0-3.2,0.2-4.601,0.7
		c-0.2,0.1-0.399,0.1-0.5,0.2c-1.2,0.5-2.2,1.1-3.1,1.9c-1,0.9-1.8,2-2.3,3.3C70.8,46.9,70.6,48.4,70.6,50.1
		c0,1.7,0.301,3.2,0.801,4.5C72,55.9,72.7,57,73.7,57.9c1,0.899,2.2,1.6,3.6,2C78.7,60.3,80.2,60.6,81.9,60.6
		c1.699,0,3.199-0.199,4.6-0.699c0.1,0,0.2-0.101,0.3-0.101c1-0.3,1.8-0.8,2.601-1.3c0.3-0.2,0.5-0.4,0.699-0.6
		c1-0.9,1.801-2,2.301-3.301c0.6-1.3,0.8-2.8,0.8-4.5c0-1.7-0.3-3.2-0.8-4.5C91.9,44.3,91.1,43.2,90.1,42.3z M74.1,54.2
		C73.7,53,73.5,51.6,73.5,50c0-1.6,0.2-3,0.6-4.2c0.4-1.2,1-2.2,1.801-2.9c0.5-0.5,1-0.9,1.5-1.2c0.399-0.2,0.8-0.4,1.199-0.5
		c1-0.4,2.101-0.6,3.301-0.6c1.199,0,2.3,0.2,3.3,0.6c1,0.4,1.899,0.9,2.7,1.7c0.8,0.8,1.3,1.7,1.8,2.9c0.399,1.2,0.6,2.6,0.6,4.2
		c0,1.6-0.2,3-0.6,4.2c-0.4,1.2-1,2.2-1.8,2.899C87.4,57.6,86.8,58,86.2,58.4c-0.3,0.199-0.601,0.3-1,0.399
		c-1,0.4-2.101,0.601-3.3,0.601c-1.2,0-2.301-0.2-3.301-0.601C77.6,58.4,76.7,57.9,75.9,57.1c-0.2-0.199-0.4-0.399-0.5-0.6
		C74.8,55.9,74.4,55.1,74.1,54.2z"/>
	<path fill="#231F20" d="M69.3,49.8c0-1.4-0.3-2.7-0.7-3.8c-0.5-1.2-1.199-2.2-2-3c-0.899-0.8-1.899-1.4-3.1-1.8
		c-1.2-0.4-2.6-0.6-4-0.6s-2.8,0.2-4,0.6c-1.2,0.4-2.3,1-3.1,1.8c-0.9,0.8-1.5,1.8-2,3c-0.5,1.2-0.7,2.5-0.7,4s0.2,2.8,0.7,4
		c0.5,1.2,1.2,2.2,2,3c0.899,0.8,1.899,1.4,3.1,1.8c1.2,0.4,2.5,0.601,4,0.601s2.8-0.2,4-0.601c1.2-0.399,2.3-1,3.1-1.8
		c0.9-0.8,1.5-1.8,2-3s0.7-2.5,0.7-4l0,0l0,0C69.4,50,69.3,49.9,69.3,49.8z M66.3,50c0,1.4-0.2,2.7-0.5,3.7S65,55.6,64.3,56.3
		c-0.6,0.7-1.399,1.2-2.2,1.5c-0.8,0.3-1.699,0.5-2.699,0.5s-1.9-0.2-2.7-0.5S55.1,57,54.5,56.3s-1.1-1.5-1.5-2.6
		c-0.3-1-0.5-2.3-0.5-3.7c0-1.4,0.2-2.7,0.5-3.7s0.8-1.9,1.5-2.6c0.6-0.7,1.3-1.2,2.2-1.5c0.8-0.3,1.7-0.5,2.7-0.5
		s1.899,0.2,2.699,0.5c0.801,0.3,1.601,0.8,2.2,1.5c0.601,0.7,1.101,1.6,1.5,2.6C66.2,47.4,66.3,48.6,66.3,50z"/>
	<path fill="#231F20" d="M13.9,45.6c0.6-1.1,1.6-2.7,2.2-3.7c0.7-1.2,1.3-2.2,1.6-2.7c0.2-0.4,0.4-0.6,0.6-0.9l0,0l0,0l0,0
		c0,0-0.1,0-0.2,0c-0.2,0-0.3,0.1-0.5,0.1c-0.1,0-0.1,0-0.2,0c-0.2,0-0.3,0-0.5,0h-0.1c-0.5,0-1.1-0.1-1.5-0.2
		C14,40.6,9.4,48,9.2,48.4c-0.3-0.2-4.8-7.6-6.2-10l0,0l0,0l0,0c-0.1,0-0.1,0-0.2,0.1c-0.1,0-0.3,0.1-0.4,0.1s-0.2,0-0.4,0H1.9
		c-0.1,0-0.3,0-0.4,0c-0.3,0-0.6,0-0.8-0.1c-0.1,0-0.1,0-0.2,0c-0.2,0-0.4-0.1-0.5-0.1c0.2,0.3,0.4,0.6,0.6,0.9
		c0.3,0.5,0.9,1.4,1.6,2.7c0.6,1,1.5,2.5,2.2,3.7c0.7,1.1,1.3,2.3,2,3.5c0.8,1.399,1.3,2.3,1.5,2.6v0.9c0,1.2,0,2.5-0.1,3.6
		c0,1.101-0.1,4.3-0.2,5.4c0.5-0.101,1-0.2,1.5-0.2s1,0.1,1.5,0.2c-0.1-1.101-0.1-4.3-0.1-5.4c0-1.1-0.1-2.399-0.1-3.6v-0.9
		c0.5-0.899,1-1.7,1.5-2.6C12.6,48,13.3,46.8,13.9,45.6z"/>
	<path fill="#231F20" d="M24.1,41.2C24,41,24,40.9,23.9,40.8l0,0c-0.3,0.1-0.7,0.2-1,0.2c-0.3,0-0.7-0.1-1-0.2h-0.1l0,0l0,0
		c0,0.1-0.1,0.3-0.2,0.4c-1.2,3.1-5.4,13.6-7.4,17.399c-0.1,0.2-0.2,0.5-0.3,0.5c0.5-0.1,1-0.199,1.5-0.199s1,0.1,1.5,0.199l0,0l0,0
		l0,0C17.1,58.7,18,56.4,19,53.7c0.5,0,1,0,1.4,0c0.6,0,1.7,0,2.3,0l0,0c0.6,0,1.7,0,2.3,0c0.5,0,1,0,1.4,0
		c1.1,2.7,2,4.899,2.1,5.399l0,0l0,0l0,0l0,0C29,59,29.5,58.9,30,58.9s1,0.1,1.5,0.199l0,0l0,0l0,0l0,0c0-0.1-0.2-0.399-0.3-0.5
		C29.5,54.8,25.3,44.3,24.1,41.2z M22.8,43.9c0.2,0.8,1.8,4.9,3.3,8.6c-0.6,0-2.7,0.1-3.3,0.1c-0.6,0-2.7-0.1-3.3-0.1l0,0
		C21,48.8,22.6,44.7,22.8,43.9z"/>
	<path fill="#231F20" d="M48.5,52.4V47.8c0-1.2,0-2.3,0.1-3.4c0-1.1,0.1-2.4,0.1-3.5c-0.5,0.1-1,0.2-1.5,0.2s-1-0.1-1.5-0.2l0,0l0,0
		c0.1,1.2,0.1,2.5,0.2,3.5c0,1.1,0.1,2.3,0.1,3.4v1.6l0,0l0,0l0,0l0,0c-0.8,0-1.6,0-2.3,0c-0.9,0-1.8,0-2.8,0s-1.9,0-2.8,0
		c-0.8,0-1.5,0-2.3,0l0,0v-1.6c0-1.2,0-2.3,0.1-3.4c0-1.1,0.1-2.3,0.2-3.6c-0.5,0.1-1,0.2-1.5,0.2s-1-0.1-1.5-0.2l0,0l0,0l0,0
		c0.1,1.2,0.1,2.4,0.1,3.5c0,1.1,0.1,2.3,0.1,3.4v4.6c0,1.2,0,2.3-0.1,3.4c0,1.1-0.1,2.3-0.1,3.399l0,0l0,0l0,0
		c0.5-0.1,1-0.199,1.5-0.199s1,0.1,1.5,0.199C36,58,36,56.8,36,55.7c0-1.101-0.1-2.3-0.1-3.4v-1.7l0,0c0.8,0,1.6,0,2.3,0
		c0.9,0,1.8,0,2.8,0c0.9,0,1.9,0,2.8,0c0.8,0,1.5,0,2.3,0l0,0v1.7c0,1.2,0,2.3-0.1,3.4c0,1.1-0.1,2.3-0.1,3.399l0,0l0,0l0,0
		c0.5-0.1,1-0.199,1.5-0.199s1,0.1,1.5,0.199C48.8,58,48.8,56.9,48.8,55.7C48.5,54.7,48.5,53.5,48.5,52.4z"/>
	<path fill="#231F20" d="M100,39.7L100,39.7L100,39.7C100,39.7,99.9,39.7,100,39.7c0-0.1-0.1-0.2-0.1-0.3S99.8,39.3,99.8,39.2
		c0,0,0,0,0-0.1l0,0l0,0c0-0.1-0.1-0.1-0.1-0.1l0,0c0,0,0,0-0.101,0c-0.1,0-0.1-0.1-0.199-0.1c-0.2-0.1-0.301-0.1-0.5-0.2
		c0,0,0,0-0.101,0l0,0c-0.2,0-0.399,0-0.6,0s-0.4,0.1-0.5,0.2c-0.101,0.1-0.3,0.2-0.4,0.4c-0.1,0.1-0.1,0.3-0.2,0.5v0.1l0,0l0,0V40
		c0,0.1,0,0.2,0,0.2c-0.199,2.2-0.5,5.8-0.6,7.2c-0.4,5-0.9,8.2-1,9.1c0.2,0,0.4,0,0.6,0l0,0c0.2,0,0.4,0.1,0.5,0.2
		c0.2-0.9,0.7-4.101,1.801-9c0.3-1.4,1.699-7.2,1.699-7.2s0-0.1,0-0.2C100,40.1,100,39.9,100,39.7z"/>
	<path fill="#231F20" d="M96.6,59.3C96.5,59.2,96.3,59,96.2,58.9C96,58.8,95.8,58.7,95.6,58.7c-0.1,0-0.199,0-0.3,0
		c-0.1,0-0.2,0-0.3,0c-0.2,0-0.4,0.1-0.5,0.2C94.3,59,94.2,59.1,94.1,59.3C94,59.5,93.9,59.7,93.9,59.9c0,0.199,0,0.399,0,0.6
		S94,60.9,94.1,61c0.101,0.1,0.301,0.3,0.4,0.3c0.2,0.101,0.4,0.2,0.6,0.2c0.101,0,0.2,0,0.301,0c0.1,0,0.199,0,0.3,0
		c0.2,0,0.399-0.1,0.5-0.2c0.2-0.1,0.3-0.2,0.399-0.399c0.101-0.2,0.2-0.4,0.2-0.601s0-0.399,0-0.6C96.7,59.6,96.7,59.4,96.6,59.3z"
		/>
</g>
</svg>
