<?xml version="1.0" encoding="utf-8"?>
<!-- Generator: Adobe Illustrator 15.0.0, SVG Export Plug-In . SVG Version: 6.00 Build 0)  -->
<!DOCTYPE svg PUBLIC "-//W3C//DTD SVG 1.1//EN" "http://www.w3.org/Graphics/SVG/1.1/DTD/svg11.dtd">
<svg version="1.1" id="socialicious" xmlns="http://www.w3.org/2000/svg" xmlns:xlink="http://www.w3.org/1999/xlink" x="0px"
	 y="0px" width="100px" height="100px" viewBox="0 0 100 100" enable-background="new 0 0 100 100" xml:space="preserve">
<g id="youtube">
	<path fill="#231F20" d="M29,22.2v15.1h5.6V22.2L41.3,0h-5.7l-3.8,14.7L27.9,0H22c1.2,3.5,2.4,6.9,3.6,10.4
		C27.4,15.6,28.5,19.6,29,22.2z"/>
	<path fill="#231F20" d="M48.8,37.8c2.5,0,4.5-1,5.9-2.9c1.1-1.4,1.6-3.6,1.6-6.6v-9.8c0-3-0.5-5.2-1.6-6.6C53.3,10,51.3,9,48.8,9
		s-4.5,1-5.9,2.9c-1.1,1.4-1.6,3.6-1.6,6.6v9.8c0,3,0.5,5.2,1.6,6.6C44.4,36.8,46.3,37.8,48.8,37.8z M46.4,17.6
		c0-2.6,0.8-3.9,2.4-3.9c1.6,0,2.4,1.3,2.4,3.9v11.7c0,2.6-0.8,3.9-2.4,3.9c-1.6,0-2.4-1.3-2.4-3.9V17.6z"/>
	<path fill="#231F20" d="M64.2,37.8c1.8,0,3.8-1.1,5.8-3.4v3h5V9.5h-5.1v21.3c-1.101,1.6-2.2,2.4-3.2,2.4c-0.7,0-1.101-0.4-1.2-1.2
		c-0.1-0.2-0.1-0.8-0.1-2V9.5h-5v22c0,2,0.199,3.3,0.399,4.1C61.4,37.1,62.5,37.8,64.2,37.8z"/>
	<path fill="#231F20" d="M77.7,65.7c-1.7,0-2.5,1.3-2.5,3.8V72h5v-2.5C80.2,66.9,79.3,65.7,77.7,65.7z"/>
	<path fill="#231F20" d="M59.1,65.7c-0.8,0-1.699,0.399-2.5,1.2v16.8c0.801,0.8,1.7,1.2,2.5,1.2c1.4,0,2.2-1.2,2.2-3.7V69.4
		C61.3,66.9,60.6,65.7,59.1,65.7z"/>
	<path fill="#231F20" d="M89.9,51.7c-1-4.4-4.601-7.6-8.9-8.1c-10.3-1.1-20.6-1.2-31-1.1c-10.3,0-20.7,0-31,1.1
		c-4.3,0.5-7.9,3.7-8.9,8.1C8.7,58,8.6,64.8,8.6,71.2c0,6.399,0,13.3,1.4,19.5c1,4.399,4.6,7.6,8.9,8.1
		C29.1,99.9,39.5,99.9,49.9,99.9c10.3,0,20.7,0,31-1.101c4.3-0.5,7.899-3.7,8.899-8.1c1.4-6.3,1.4-13.101,1.4-19.5
		C91.3,64.7,91.3,57.9,89.9,51.7z M32.2,57.3h-6v31.8h-5.6V57.3h-5.9v-5.2h17.4v5.2H32.2z M47.3,89.1h-5v-3
		c-2,2.301-3.9,3.4-5.7,3.4c-1.6,0-2.7-0.7-3.2-2.1C33.1,86.6,33,85.3,33,83.3V61.5h5v20.3c0,1.2,0,1.8,0,1.9
		c0.1,0.8,0.5,1.2,1.2,1.2c1,0,2-0.801,3.2-2.301V61.5h5v27.6H47.3z M66.3,80.8c0,2.5-0.2,4.4-0.5,5.601c-0.7,2.1-2,3.1-4,3.1
		c-1.8,0-3.5-1-5.2-3.1V89.1h-5v-37h5V64.2c1.601-2,3.301-3,5.2-3c2,0,3.3,1,4,3.1c0.3,1.101,0.5,2.9,0.5,5.5V80.8z M85.2,76.2h-10
		V81.1c0,2.601,0.8,3.801,2.5,3.801c1.2,0,1.899-0.7,2.2-2c0-0.301,0.1-1.4,0.1-3.4h5.1v0.7c0,1.6-0.1,2.7-0.1,3.2
		c-0.2,1.1-0.6,2.1-1.2,3c-1.399,2-3.399,3-6,3c-2.6,0-4.6-0.9-6-2.801c-1.1-1.399-1.6-3.6-1.6-6.5V70.4c0-2.9,0.5-5.101,1.5-6.5
		C73.1,62,75.1,61.1,77.7,61.1c2.5,0,4.5,0.9,5.899,2.801c1,1.399,1.5,3.5,1.5,6.5v5.8H85.2z"/>
</g>
</svg>
